<?xml version="1.0" encoding="utf-8"?>
<!-- Generator: Adobe Illustrator 26.1.0, SVG Export Plug-In . SVG Version: 6.00 Build 0)  -->
<svg version="1.1" id="Capa_1" xmlns="http://www.w3.org/2000/svg" xmlns:xlink="http://www.w3.org/1999/xlink" x="0px" y="0px"
	 viewBox="0 0 800 800" style="enable-background:new 0 0 800 800;" xml:space="preserve">
<style type="text/css">
	.st0{fill:#FFFFFF;}
</style>
<path class="st0" d="M717.2,386.5l-21.4-12.9L717.2,386.5z M419.7,89l-12.9-21.4l0,0L419.7,89z M723.3,391.3
	c0,170.3-138,308.3-308.3,308.3v50c197.9,0,358.3-160.4,358.3-358.3H723.3z M414.9,699.6c-170.3,0-308.3-138-308.3-308.3h-50
	c0,197.9,160.4,358.3,358.3,358.3V699.6z M106.6,391.3c0-170.3,138-308.3,308.3-308.3v-50C217,32.9,56.6,193.4,56.6,391.3H106.6z
	 M531.6,466.3c-105.9,0-191.7-85.8-191.7-191.7h-50c0,133.5,108.2,241.7,241.7,241.7V466.3z M695.8,373.6
	c-33.6,55.6-94.6,92.7-164.2,92.7v50c87.8,0,164.7-46.9,207-116.8L695.8,373.6z M339.9,274.6c0-69.6,37.1-130.6,92.7-164.2
	l-25.9-42.8c-70,42.3-116.8,119.1-116.8,207H339.9z M414.9,82.9c-3,0-6.4-1.3-8.9-3.9c-2.1-2.2-2.6-4.3-2.7-5.2
	c-0.1-1-0.1-4,3.5-6.2l25.9,42.8c16.8-10.1,22.2-28.7,20.2-43.3c-2-15.2-14-34.2-37.9-34.2V82.9z M738.6,399.4
	c-2.2,3.6-5.2,3.6-6.2,3.5c-0.8-0.1-2.9-0.6-5.2-2.7c-2.6-2.5-3.9-6-3.9-8.9h50c0-23.9-19-35.8-34.2-37.9
	c-14.6-2-33.1,3.4-43.3,20.2L738.6,399.4z"/>
</svg>
